<?xml version="1.0" encoding="UTF-8"?>
<svg width="78px" height="23px" viewBox="0 0 78 23" version="1.1" xmlns="http://www.w3.org/2000/svg" xmlns:xlink="http://www.w3.org/1999/xlink">
    <!-- Generator: Sketch 41.2 (35397) - http://www.bohemiancoding.com/sketch -->
    <title>Group Copy 2</title>
    <desc>Created with Sketch.</desc>
    <defs></defs>
    <g id="Welcome" stroke="none" stroke-width="1" fill="none" fill-rule="evenodd">
        <g id="Desktop-HD" transform="translate(-25.000000, -25.000000)" fill="#FFFFFF">
            <g id="Group-Copy-2" transform="translate(25.000000, 25.000000)">
                <path d="M7.17057269,18.508601 C10.8786428,18.508601 13.4816589,16.5733853 13.4816589,13.1247318 L13.4816589,13.0751109 C13.4816589,10.0482351 11.5171185,8.7829018 8.03005914,7.86491488 C5.05869169,7.09579072 4.32198902,6.72363386 4.32198902,5.58235284 L4.32198902,5.53273192 C4.32198902,4.68917638 5.08324845,4.01929404 6.53209704,4.01929404 C7.71082131,4.01929404 8.88954559,4.44107181 10.1419401,5.18538552 C10.4366212,5.35905872 10.7313023,5.45830055 11.0996536,5.45830055 C12.0819238,5.45830055 12.86774,4.68917638 12.86774,3.6967581 C12.86774,2.95244439 12.4502752,2.43142479 12.0328103,2.18332022 C10.4857347,1.19090194 8.66853479,0.645071883 6.58121055,0.645071883 C3.06959447,0.645071883 0.564805383,2.72915028 0.564805383,5.88007832 L0.564805383,5.92969923 C0.564805383,9.37835276 2.79947016,10.3459606 6.26197272,11.239137 C9.13511315,11.9834508 9.72447529,12.4796599 9.72447529,13.4472677 L9.72447529,13.4968886 C9.72447529,14.5141174 8.79131857,15.1343788 7.24424295,15.1343788 C5.57438356,15.1343788 4.15009173,14.5389278 2.84858367,13.57132 C2.60301611,13.3976468 2.25922153,13.2239736 1.76808642,13.2239736 C0.785816185,13.2239736 0,13.9930978 0,14.9855161 C0,15.580967 0.294681069,16.1267971 0.712145918,16.4245226 C2.62757287,17.8139082 4.91135116,18.508601 7.17057269,18.508601 Z M14.6249123,1.83597382 C14.6249123,2.92763393 15.5335123,3.62232673 16.7122366,3.62232673 C17.8909608,3.62232673 18.7995608,2.92763393 18.7995608,1.83597382 L18.7995608,1.78635291 C18.7995608,0.694692797 17.8909608,0.024810457 16.7122366,0.024810457 C15.5335123,0.024810457 14.6249123,0.694692797 14.6249123,1.78635291 L14.6249123,1.83597382 Z M14.8459231,16.5237644 C14.8459231,17.5658036 15.6808528,18.4093591 16.7122366,18.4093591 C17.7436203,18.4093591 18.57855,17.5658036 18.57855,16.5237644 L18.57855,6.6988234 C18.57855,5.65678421 17.7436203,4.81322867 16.7122366,4.81322867 C15.6808528,4.81322867 14.8459231,5.65678421 14.8459231,6.6988234 L14.8459231,16.5237644 Z M20.3848358,16.5237644 C20.3848358,17.5658036 21.2197655,18.4093591 22.2511493,18.4093591 C23.282533,18.4093591 24.1174627,17.5658036 24.1174627,16.5237644 L24.1174627,10.8421697 C24.1174627,9.05581682 24.9769492,8.13782991 26.3766842,8.13782991 C27.7764193,8.13782991 28.5622355,9.05581682 28.5622355,10.8421697 L28.5622355,16.5237644 C28.5622355,17.5658036 29.3971652,18.4093591 30.4285489,18.4093591 C31.4599327,18.4093591 32.2948624,17.5658036 32.2948624,16.5237644 L32.2948624,10.8421697 C32.2948624,9.05581682 33.1543488,8.13782991 34.5540839,8.13782991 C35.953819,8.13782991 36.7396352,9.05581682 36.7396352,10.8421697 L36.7396352,16.5237644 C36.7396352,17.5658036 37.5745649,18.4093591 38.6059486,18.4093591 C39.6373324,18.4093591 40.472262,17.5658036 40.472262,16.5237644 L40.472262,9.60164688 C40.472262,6.40109792 38.8024027,4.71398684 36.0274893,4.71398684 C34.2348461,4.71398684 32.8596678,5.45830055 31.7055002,6.82287569 C31.0179111,5.48311101 29.716403,4.71398684 27.9974301,4.71398684 C26.1065599,4.71398684 24.9769492,5.73121558 24.1174627,6.84768615 L24.1174627,6.6988234 C24.1174627,5.65678421 23.282533,4.81322867 22.2511493,4.81322867 C21.2197655,4.81322867 20.3848358,5.65678421 20.3848358,6.6988234 L20.3848358,16.5237644 Z M42.0084235,20.4934375 C42.0084235,21.5354767 42.8433532,22.3790323 43.874737,22.3790323 C44.9061207,22.3790323 45.7410504,21.5354767 45.7410504,20.4934375 L45.7410504,16.5237644 C46.6250936,17.590614 47.8529314,18.508601 49.8420286,18.508601 C52.9607366,18.508601 55.8338771,16.0771762 55.8338771,11.6361044 L55.8338771,11.5864834 C55.8338771,7.14541163 52.9116231,4.71398684 49.8420286,4.71398684 C47.9020449,4.71398684 46.6496504,5.63197375 45.7410504,6.8724966 L45.7410504,6.6988234 C45.7410504,5.65678421 44.9061207,4.81322867 43.874737,4.81322867 C42.8433532,4.81322867 42.0084235,5.65678421 42.0084235,6.6988234 L42.0084235,20.4934375 Z M49.2253812,15.308052 C47.4818516,15.308052 46.033003,13.844235 46.033003,11.6361044 L46.033003,11.5864834 C46.033003,9.37835276 47.4818516,7.9145358 49.2253812,7.9145358 C50.9689109,7.9145358 52.4423162,9.37835276 52.4423162,11.5864834 L52.4423162,11.6361044 C52.4423162,13.8690455 50.9689109,15.308052 49.2253812,15.308052 Z M57.2213338,16.5237644 C57.2213338,17.5658036 58.0562634,18.4093591 59.0876472,18.4093591 C60.1190309,18.4093591 60.9539606,17.5658036 60.9539606,16.5237644 L60.9539606,1.88559474 C60.9539606,0.84355554 60.1190309,0 59.0876472,0 C58.0562634,0 57.2213338,0.84355554 57.2213338,1.88559474 L57.2213338,16.5237644 Z M63.052199,1.83597382 C63.052199,2.92763393 63.9607989,3.62232673 65.1395232,3.62232673 C66.3182475,3.62232673 67.2268475,2.92763393 67.2268475,1.83597382 L67.2268475,1.78635291 C67.2268475,0.694692797 66.3182475,0.024810457 65.1395232,0.024810457 C63.9607989,0.024810457 63.052199,0.694692797 63.052199,1.78635291 L63.052199,1.83597382 Z M63.2732098,14.9758928 C63.2732098,15.8801976 64.1081395,16.6122539 65.1395232,16.6122539 C66.170907,16.6122539 67.0058367,15.8801976 67.0058367,14.9758928 L67.0058367,6.44958984 C67.0058367,5.54528498 66.170907,4.81322867 65.1395232,4.81322867 C64.1081395,4.81322867 63.2732098,5.54528498 63.2732098,6.44958984 L63.2732098,14.9758928 Z M69.6156741,1.83597382 C69.6156741,2.92763393 70.5242741,3.62232673 71.7029983,3.62232673 C72.8817226,3.62232673 73.7903226,2.92763393 73.7903226,1.83597382 L73.7903226,1.78635291 C73.7903226,0.694692797 72.8817226,0.024810457 71.7029983,0.024810457 C70.5242741,0.024810457 69.6156741,0.694692797 69.6156741,1.78635291 L69.6156741,1.83597382 Z M69.8366849,13.6631976 C69.8366849,14.4506948 70.6716146,15.0881926 71.7029983,15.0881926 C72.7343821,15.0881926 73.5693118,14.4506948 73.5693118,13.6631976 L73.5693118,6.23822367 C73.5693118,5.45072643 72.7343821,4.81322867 71.7029983,4.81322867 C70.6716146,4.81322867 69.8366849,5.45072643 69.8366849,6.23822367 L69.8366849,13.6631976 Z" id="Simplii"></path>
                <path d="M72.6652873,27.6209677 C73.2472021,27.6209677 73.7903226,27.0108487 73.7903226,26.4007296 C73.7903226,25.9283794 73.5769538,25.6134793 73.3053936,25.4166667 C71.0553231,23.7043971 70.0660679,21.9724462 70.0660679,19.3548387 C70.0660679,16.7569124 71.0553231,15.0052803 73.3053936,13.2930108 C73.5769538,13.0961982 73.7903226,12.781298 73.7903226,12.3089478 C73.7903226,11.6988287 73.2472021,11.0887097 72.6652873,11.0887097 C72.3355356,11.0887097 72.0639754,11.187116 71.9669896,11.2461598 C68.7858554,13.1946045 67.1370968,15.7728495 67.1370968,19.3548387 C67.1370968,22.936828 68.7858554,25.515073 71.9669896,27.4635177 C72.0639754,27.5225614 72.3355356,27.6209677 72.6652873,27.6209677 Z" id="(" transform="translate(70.463710, 19.354839) rotate(254.000000) translate(-70.463710, -19.354839) "></path>
            </g>
        </g>
    </g>
</svg>